# xmcd
# Track frame offsets:
# 150
# 10584
# 22882
# 24607
# 33983
# 43961
# 45082
# 58890
# 72091
# 73438
#
# Disc length: 1130 seconds
# Revision: 0
# Processed by: cddbd v1.5.2PL0 Copyright (c) Steve Scherf et al.
# Submitted via: VisiTrax 2.11.1.266 - For more info visit www.synapsa.com
#
DISCID=8004680a
DTITLE=Coar Rose Wood - Cora"s Cowgirl Yodel
DYEAR=1990
DGENRE=Cowboy
TTITLE0=Cowboy's Sweetheart
TTITLE1=I Didn't Know The Gun Was Loaded
TTITLE2=Chester
TTITLE3=Old Paint
TTITLE4=Cora's Cowgirl Yodel
TTITLE5=The Big Wreck
TTITLE6=Daddy Was A Yodeling Cowboy
TTITLE7=Itty Bitty Outlaw
TTITLE8=Silly Poem
TTITLE9=Old Cook Grady
EXTD=
EXTT0=
EXTT1=
EXTT2=
EXTT3=
EXTT4=
EXTT5=
EXTT6=
EXTT7=
EXTT8=
EXTT9=
PLAYORDER=
